M48
INCH,TZ
T1C0.016
T2C0.039
T3C0.039
T4C0.040
T5C0.079
T6C0.091
T7C0.120
%
G90
G05
T1
X66157Y-51925
X68856Y-41622
X68947Y-38463
X68949Y-37661
X68978Y-39978
X72882Y-37963
X73648Y-34640
T2
X71167Y-36291
X71167Y-58614
T3
X66565Y-35132
X67549Y-35132
X67985Y-54469
X67985Y-55469
X67985Y-56269
X67985Y-57269
X68028Y-45071
X68028Y-46071
X68028Y-46871
X68028Y-47871
X68533Y-35132
X69518Y-35132
T4
X70132Y-60331
X71132Y-60331
X72132Y-60331
T6
X66935Y-53069
X66935Y-58469
X66978Y-43671
X66978Y-49071
T7
X74470Y-35817
X74557Y-46037
T5
X75039Y-60234G85X76220Y-60234
G05
X78150Y-60234G85X79331Y-60234
G05
T0
M30
