G04 #@! TF.FileFunction,Legend,Top*
%FSLAX46Y46*%
G04 Gerber Fmt 4.6, Leading zero omitted, Abs format (unit mm)*
G04 Created by KiCad (PCBNEW 4.0.1-3.201512221401+6198~38~ubuntu15.10.1-stable) date Fri 14 Oct 2016 06:40:47 AM PDT*
%MOMM*%
G01*
G04 APERTURE LIST*
%ADD10C,0.100000*%
%ADD11C,0.150000*%
G04 APERTURE END LIST*
D10*
D11*
X191661000Y-116935000D02*
G75*
G03X191661000Y-116935000I-2286000J0D01*
G01*
X184120000Y-93600000D02*
X182120000Y-93600000D01*
X182120000Y-95650000D02*
X184120000Y-95650000D01*
X174345000Y-95100000D02*
X176345000Y-95100000D01*
X176345000Y-92150000D02*
X174345000Y-92150000D01*
X183660000Y-86915000D02*
X181660000Y-86915000D01*
X181660000Y-89865000D02*
X183660000Y-89865000D01*
X172205000Y-96670000D02*
X170205000Y-96670000D01*
X170205000Y-98720000D02*
X172205000Y-98720000D01*
X172205000Y-100520000D02*
X170205000Y-100520000D01*
X170205000Y-102570000D02*
X172205000Y-102570000D01*
X169875000Y-130845000D02*
X171875000Y-130845000D01*
X171875000Y-127895000D02*
X169875000Y-127895000D01*
X171895000Y-104245000D02*
X169895000Y-104245000D01*
X169895000Y-107195000D02*
X171895000Y-107195000D01*
X179405000Y-154510000D02*
X184485000Y-154510000D01*
X184485000Y-154510000D02*
X184485000Y-151970000D01*
X184485000Y-151970000D02*
X179405000Y-151970000D01*
X176585000Y-151690000D02*
X178135000Y-151690000D01*
X179405000Y-151970000D02*
X179405000Y-154510000D01*
X178135000Y-154790000D02*
X176585000Y-154790000D01*
X176585000Y-154790000D02*
X176585000Y-151690000D01*
X173825000Y-149399000D02*
X159728000Y-149399000D01*
X159728000Y-134413000D02*
X173825000Y-134413000D01*
X173825000Y-149399000D02*
X173825000Y-134413000D01*
X159728000Y-149399000D02*
X159728000Y-134413000D01*
X173935000Y-125529000D02*
X159838000Y-125529000D01*
X159838000Y-110543000D02*
X173935000Y-110543000D01*
X173935000Y-125529000D02*
X173935000Y-110543000D01*
X159838000Y-125529000D02*
X159838000Y-110543000D01*
X185565000Y-96480000D02*
X180765000Y-96480000D01*
X185565000Y-144480000D02*
X185565000Y-96480000D01*
X175965000Y-144480000D02*
X185565000Y-144480000D01*
X175965000Y-96480000D02*
X175965000Y-144480000D01*
X180765000Y-96480000D02*
X175965000Y-96480000D01*
X178175000Y-87335000D02*
X178175000Y-91018000D01*
X178143000Y-91035000D02*
X167475000Y-91035000D01*
X167475000Y-91018000D02*
X167475000Y-87335000D01*
X178175000Y-86187000D02*
X178175000Y-87330000D01*
X178175000Y-87335000D02*
X167507000Y-87335000D01*
X167475000Y-87235000D02*
X167475000Y-86092000D01*
X172775000Y-86235000D02*
X167441000Y-86235000D01*
X172841000Y-86235000D02*
X178175000Y-86235000D01*
X191441000Y-90975000D02*
G75*
G03X191441000Y-90975000I-2286000J0D01*
G01*
X188091667Y-117497381D02*
X187758333Y-117021190D01*
X187520238Y-117497381D02*
X187520238Y-116497381D01*
X187901191Y-116497381D01*
X187996429Y-116545000D01*
X188044048Y-116592619D01*
X188091667Y-116687857D01*
X188091667Y-116830714D01*
X188044048Y-116925952D01*
X187996429Y-116973571D01*
X187901191Y-117021190D01*
X187520238Y-117021190D01*
X188520238Y-116973571D02*
X188853572Y-116973571D01*
X188996429Y-117497381D02*
X188520238Y-117497381D01*
X188520238Y-116497381D01*
X188996429Y-116497381D01*
X189758334Y-116973571D02*
X189425000Y-116973571D01*
X189425000Y-117497381D02*
X189425000Y-116497381D01*
X189901191Y-116497381D01*
X190425000Y-116497381D02*
X190425000Y-116735476D01*
X190186905Y-116640238D02*
X190425000Y-116735476D01*
X190663096Y-116640238D01*
X190282143Y-116925952D02*
X190425000Y-116735476D01*
X190567858Y-116925952D01*
X191186905Y-116497381D02*
X191186905Y-116735476D01*
X190948810Y-116640238D02*
X191186905Y-116735476D01*
X191425001Y-116640238D01*
X191044048Y-116925952D02*
X191186905Y-116735476D01*
X191329763Y-116925952D01*
X188153334Y-96052143D02*
X188105715Y-96099762D01*
X187962858Y-96147381D01*
X187867620Y-96147381D01*
X187724762Y-96099762D01*
X187629524Y-96004524D01*
X187581905Y-95909286D01*
X187534286Y-95718810D01*
X187534286Y-95575952D01*
X187581905Y-95385476D01*
X187629524Y-95290238D01*
X187724762Y-95195000D01*
X187867620Y-95147381D01*
X187962858Y-95147381D01*
X188105715Y-95195000D01*
X188153334Y-95242619D01*
X189105715Y-96147381D02*
X188534286Y-96147381D01*
X188820000Y-96147381D02*
X188820000Y-95147381D01*
X188724762Y-95290238D01*
X188629524Y-95385476D01*
X188534286Y-95433095D01*
X169858334Y-94627143D02*
X169810715Y-94674762D01*
X169667858Y-94722381D01*
X169572620Y-94722381D01*
X169429762Y-94674762D01*
X169334524Y-94579524D01*
X169286905Y-94484286D01*
X169239286Y-94293810D01*
X169239286Y-94150952D01*
X169286905Y-93960476D01*
X169334524Y-93865238D01*
X169429762Y-93770000D01*
X169572620Y-93722381D01*
X169667858Y-93722381D01*
X169810715Y-93770000D01*
X169858334Y-93817619D01*
X170239286Y-93817619D02*
X170286905Y-93770000D01*
X170382143Y-93722381D01*
X170620239Y-93722381D01*
X170715477Y-93770000D01*
X170763096Y-93817619D01*
X170810715Y-93912857D01*
X170810715Y-94008095D01*
X170763096Y-94150952D01*
X170191667Y-94722381D01*
X170810715Y-94722381D01*
X182603334Y-86692143D02*
X182555715Y-86739762D01*
X182412858Y-86787381D01*
X182317620Y-86787381D01*
X182174762Y-86739762D01*
X182079524Y-86644524D01*
X182031905Y-86549286D01*
X181984286Y-86358810D01*
X181984286Y-86215952D01*
X182031905Y-86025476D01*
X182079524Y-85930238D01*
X182174762Y-85835000D01*
X182317620Y-85787381D01*
X182412858Y-85787381D01*
X182555715Y-85835000D01*
X182603334Y-85882619D01*
X182936667Y-85787381D02*
X183555715Y-85787381D01*
X183222381Y-86168333D01*
X183365239Y-86168333D01*
X183460477Y-86215952D01*
X183508096Y-86263571D01*
X183555715Y-86358810D01*
X183555715Y-86596905D01*
X183508096Y-86692143D01*
X183460477Y-86739762D01*
X183365239Y-86787381D01*
X183079524Y-86787381D01*
X182984286Y-86739762D01*
X182936667Y-86692143D01*
X174953334Y-99892143D02*
X174905715Y-99939762D01*
X174762858Y-99987381D01*
X174667620Y-99987381D01*
X174524762Y-99939762D01*
X174429524Y-99844524D01*
X174381905Y-99749286D01*
X174334286Y-99558810D01*
X174334286Y-99415952D01*
X174381905Y-99225476D01*
X174429524Y-99130238D01*
X174524762Y-99035000D01*
X174667620Y-98987381D01*
X174762858Y-98987381D01*
X174905715Y-99035000D01*
X174953334Y-99082619D01*
X175810477Y-99320714D02*
X175810477Y-99987381D01*
X175572381Y-98939762D02*
X175334286Y-99654048D01*
X175953334Y-99654048D01*
X174953334Y-104007143D02*
X174905715Y-104054762D01*
X174762858Y-104102381D01*
X174667620Y-104102381D01*
X174524762Y-104054762D01*
X174429524Y-103959524D01*
X174381905Y-103864286D01*
X174334286Y-103673810D01*
X174334286Y-103530952D01*
X174381905Y-103340476D01*
X174429524Y-103245238D01*
X174524762Y-103150000D01*
X174667620Y-103102381D01*
X174762858Y-103102381D01*
X174905715Y-103150000D01*
X174953334Y-103197619D01*
X175858096Y-103102381D02*
X175381905Y-103102381D01*
X175334286Y-103578571D01*
X175381905Y-103530952D01*
X175477143Y-103483333D01*
X175715239Y-103483333D01*
X175810477Y-103530952D01*
X175858096Y-103578571D01*
X175905715Y-103673810D01*
X175905715Y-103911905D01*
X175858096Y-104007143D01*
X175810477Y-104054762D01*
X175715239Y-104102381D01*
X175477143Y-104102381D01*
X175381905Y-104054762D01*
X175334286Y-104007143D01*
X164983334Y-131017143D02*
X164935715Y-131064762D01*
X164792858Y-131112381D01*
X164697620Y-131112381D01*
X164554762Y-131064762D01*
X164459524Y-130969524D01*
X164411905Y-130874286D01*
X164364286Y-130683810D01*
X164364286Y-130540952D01*
X164411905Y-130350476D01*
X164459524Y-130255238D01*
X164554762Y-130160000D01*
X164697620Y-130112381D01*
X164792858Y-130112381D01*
X164935715Y-130160000D01*
X164983334Y-130207619D01*
X165840477Y-130112381D02*
X165650000Y-130112381D01*
X165554762Y-130160000D01*
X165507143Y-130207619D01*
X165411905Y-130350476D01*
X165364286Y-130540952D01*
X165364286Y-130921905D01*
X165411905Y-131017143D01*
X165459524Y-131064762D01*
X165554762Y-131112381D01*
X165745239Y-131112381D01*
X165840477Y-131064762D01*
X165888096Y-131017143D01*
X165935715Y-130921905D01*
X165935715Y-130683810D01*
X165888096Y-130588571D01*
X165840477Y-130540952D01*
X165745239Y-130493333D01*
X165554762Y-130493333D01*
X165459524Y-130540952D01*
X165411905Y-130588571D01*
X165364286Y-130683810D01*
X174953334Y-108692143D02*
X174905715Y-108739762D01*
X174762858Y-108787381D01*
X174667620Y-108787381D01*
X174524762Y-108739762D01*
X174429524Y-108644524D01*
X174381905Y-108549286D01*
X174334286Y-108358810D01*
X174334286Y-108215952D01*
X174381905Y-108025476D01*
X174429524Y-107930238D01*
X174524762Y-107835000D01*
X174667620Y-107787381D01*
X174762858Y-107787381D01*
X174905715Y-107835000D01*
X174953334Y-107882619D01*
X175286667Y-107787381D02*
X175953334Y-107787381D01*
X175524762Y-108787381D01*
X185032381Y-149998095D02*
X184032381Y-149998095D01*
X184032381Y-149617142D01*
X184080000Y-149521904D01*
X184127619Y-149474285D01*
X184222857Y-149426666D01*
X184365714Y-149426666D01*
X184460952Y-149474285D01*
X184508571Y-149521904D01*
X184556190Y-149617142D01*
X184556190Y-149998095D01*
X185032381Y-148474285D02*
X185032381Y-149045714D01*
X185032381Y-148760000D02*
X184032381Y-148760000D01*
X184175238Y-148855238D01*
X184270476Y-148950476D01*
X184318095Y-149045714D01*
X175449381Y-134393095D02*
X174449381Y-134393095D01*
X174449381Y-134012142D01*
X174497000Y-133916904D01*
X174544619Y-133869285D01*
X174639857Y-133821666D01*
X174782714Y-133821666D01*
X174877952Y-133869285D01*
X174925571Y-133916904D01*
X174973190Y-134012142D01*
X174973190Y-134393095D01*
X174544619Y-133440714D02*
X174497000Y-133393095D01*
X174449381Y-133297857D01*
X174449381Y-133059761D01*
X174497000Y-132964523D01*
X174544619Y-132916904D01*
X174639857Y-132869285D01*
X174735095Y-132869285D01*
X174877952Y-132916904D01*
X175449381Y-133488333D01*
X175449381Y-132869285D01*
X175592261Y-115217235D02*
X174592261Y-115217235D01*
X174592261Y-114836282D01*
X174639880Y-114741044D01*
X174687499Y-114693425D01*
X174782737Y-114645806D01*
X174925594Y-114645806D01*
X175020832Y-114693425D01*
X175068451Y-114741044D01*
X175116070Y-114836282D01*
X175116070Y-115217235D01*
X174592261Y-114312473D02*
X174592261Y-113693425D01*
X174973213Y-114026759D01*
X174973213Y-113883901D01*
X175020832Y-113788663D01*
X175068451Y-113741044D01*
X175163690Y-113693425D01*
X175401785Y-113693425D01*
X175497023Y-113741044D01*
X175544642Y-113788663D01*
X175592261Y-113883901D01*
X175592261Y-114169616D01*
X175544642Y-114264854D01*
X175497023Y-114312473D01*
X183717381Y-120846666D02*
X183241190Y-121180000D01*
X183717381Y-121418095D02*
X182717381Y-121418095D01*
X182717381Y-121037142D01*
X182765000Y-120941904D01*
X182812619Y-120894285D01*
X182907857Y-120846666D01*
X183050714Y-120846666D01*
X183145952Y-120894285D01*
X183193571Y-120941904D01*
X183241190Y-121037142D01*
X183241190Y-121418095D01*
X183717381Y-119894285D02*
X183717381Y-120465714D01*
X183717381Y-120180000D02*
X182717381Y-120180000D01*
X182860238Y-120275238D01*
X182955476Y-120370476D01*
X183003095Y-120465714D01*
X195563095Y-148687381D02*
X195563095Y-149496905D01*
X195610714Y-149592143D01*
X195658333Y-149639762D01*
X195753571Y-149687381D01*
X195944048Y-149687381D01*
X196039286Y-149639762D01*
X196086905Y-149592143D01*
X196134524Y-149496905D01*
X196134524Y-148687381D01*
X197134524Y-149687381D02*
X196563095Y-149687381D01*
X196848809Y-149687381D02*
X196848809Y-148687381D01*
X196753571Y-148830238D01*
X196658333Y-148925476D01*
X196563095Y-148973095D01*
X167443095Y-91542381D02*
X167443095Y-92351905D01*
X167490714Y-92447143D01*
X167538333Y-92494762D01*
X167633571Y-92542381D01*
X167824048Y-92542381D01*
X167919286Y-92494762D01*
X167966905Y-92447143D01*
X168014524Y-92351905D01*
X168014524Y-91542381D01*
X168443095Y-91637619D02*
X168490714Y-91590000D01*
X168585952Y-91542381D01*
X168824048Y-91542381D01*
X168919286Y-91590000D01*
X168966905Y-91637619D01*
X169014524Y-91732857D01*
X169014524Y-91828095D01*
X168966905Y-91970952D01*
X168395476Y-92542381D01*
X169014524Y-92542381D01*
X187861667Y-91622381D02*
X187528333Y-91146190D01*
X187290238Y-91622381D02*
X187290238Y-90622381D01*
X187671191Y-90622381D01*
X187766429Y-90670000D01*
X187814048Y-90717619D01*
X187861667Y-90812857D01*
X187861667Y-90955714D01*
X187814048Y-91050952D01*
X187766429Y-91098571D01*
X187671191Y-91146190D01*
X187290238Y-91146190D01*
X188290238Y-91098571D02*
X188623572Y-91098571D01*
X188766429Y-91622381D02*
X188290238Y-91622381D01*
X188290238Y-90622381D01*
X188766429Y-90622381D01*
X189528334Y-91098571D02*
X189195000Y-91098571D01*
X189195000Y-91622381D02*
X189195000Y-90622381D01*
X189671191Y-90622381D01*
X190195000Y-90622381D02*
X190195000Y-90860476D01*
X189956905Y-90765238D02*
X190195000Y-90860476D01*
X190433096Y-90765238D01*
X190052143Y-91050952D02*
X190195000Y-90860476D01*
X190337858Y-91050952D01*
X190956905Y-90622381D02*
X190956905Y-90860476D01*
X190718810Y-90765238D02*
X190956905Y-90860476D01*
X191195001Y-90765238D01*
X190814048Y-91050952D02*
X190956905Y-90860476D01*
X191099763Y-91050952D01*
M02*
