G04 #@! TF.FileFunction,Copper,L2,Bot,Signal*
%FSLAX46Y46*%
G04 Gerber Fmt 4.6, Leading zero omitted, Abs format (unit mm)*
G04 Created by KiCad (PCBNEW 4.0.1-3.201512221401+6198~38~ubuntu15.10.1-stable) date Fri 14 Oct 2016 06:40:47 AM PDT*
%MOMM*%
G01*
G04 APERTURE LIST*
%ADD10C,0.100000*%
%ADD11C,4.064000*%
%ADD12R,1.727200X2.032000*%
%ADD13O,1.727200X2.032000*%
%ADD14C,1.501140*%
%ADD15C,2.999740*%
%ADD16C,1.524000*%
%ADD17O,7.000000X4.500000*%
%ADD18O,1.501140X2.499360*%
%ADD19C,0.600000*%
%ADD20C,0.254000*%
G04 APERTURE END LIST*
D10*
D11*
X189375000Y-116935000D03*
D12*
X178135000Y-153240000D03*
D13*
X180675000Y-153240000D03*
X183215000Y-153240000D03*
D14*
X172682000Y-145462000D03*
X172682000Y-142922000D03*
X172682000Y-140890000D03*
X172682000Y-138350000D03*
D15*
X170015000Y-148510000D03*
X170015000Y-134794000D03*
D14*
X172792000Y-121592000D03*
X172792000Y-119052000D03*
X172792000Y-117020000D03*
X172792000Y-114480000D03*
D15*
X170125000Y-124640000D03*
X170125000Y-110924000D03*
D16*
X180765000Y-92180000D03*
X180765000Y-148880000D03*
D17*
X200000000Y-152995000D03*
X192100000Y-152995000D03*
D18*
X171575000Y-89235000D03*
X169075000Y-89235000D03*
X174075000Y-89235000D03*
X176575000Y-89235000D03*
D11*
X189155000Y-90975000D03*
D19*
X168040000Y-131890000D03*
X174895000Y-105720000D03*
X175205000Y-101545000D03*
X175125000Y-97695000D03*
X175130000Y-95660000D03*
X187065000Y-87985000D03*
X185120000Y-96425000D03*
D20*
G36*
X191640000Y-90005236D02*
X191417291Y-89466239D01*
X190667707Y-88715345D01*
X189687827Y-88308464D01*
X188626828Y-88307538D01*
X187646239Y-88712709D01*
X186895345Y-89462293D01*
X186488464Y-90442173D01*
X186487538Y-91503172D01*
X186892709Y-92483761D01*
X187642293Y-93234655D01*
X188622173Y-93641536D01*
X189683172Y-93642462D01*
X190663761Y-93237291D01*
X191414655Y-92487707D01*
X191640000Y-91945015D01*
X191640000Y-115432795D01*
X191637291Y-115426239D01*
X190887707Y-114675345D01*
X189907827Y-114268464D01*
X188846828Y-114267538D01*
X187866239Y-114672709D01*
X187115345Y-115422293D01*
X186708464Y-116402173D01*
X186707538Y-117463172D01*
X187112709Y-118443761D01*
X187862293Y-119194655D01*
X188842173Y-119601536D01*
X189903172Y-119602462D01*
X190883761Y-119197291D01*
X191634655Y-118447707D01*
X191640000Y-118434835D01*
X191640000Y-147850000D01*
X191694046Y-148121705D01*
X191847954Y-148352046D01*
X192078295Y-148505954D01*
X192350000Y-148560000D01*
X203740000Y-148560000D01*
X203740000Y-151638862D01*
X203379805Y-151044799D01*
X202471374Y-150378208D01*
X201377000Y-150110000D01*
X200127000Y-150110000D01*
X200127000Y-152868000D01*
X200147000Y-152868000D01*
X200147000Y-153122000D01*
X200127000Y-153122000D01*
X200127000Y-153142000D01*
X199873000Y-153142000D01*
X199873000Y-153122000D01*
X199853000Y-153122000D01*
X199853000Y-152868000D01*
X199873000Y-152868000D01*
X199873000Y-150110000D01*
X198623000Y-150110000D01*
X197528626Y-150378208D01*
X196620195Y-151044799D01*
X196099056Y-151904305D01*
X196096401Y-151890958D01*
X195471012Y-150954997D01*
X194535051Y-150329608D01*
X193431009Y-150110000D01*
X190768991Y-150110000D01*
X189664949Y-150329608D01*
X188728988Y-150954997D01*
X188103599Y-151890958D01*
X187883991Y-152995000D01*
X188103599Y-154099042D01*
X188632100Y-154890000D01*
X183382637Y-154890000D01*
X183788489Y-154809271D01*
X184274670Y-154484415D01*
X184599526Y-153998234D01*
X184713600Y-153424745D01*
X184713600Y-153055255D01*
X184599526Y-152481766D01*
X184274670Y-151995585D01*
X183788489Y-151670729D01*
X183215000Y-151556655D01*
X182641511Y-151670729D01*
X182155330Y-151995585D01*
X181945000Y-152310366D01*
X181734670Y-151995585D01*
X181248489Y-151670729D01*
X180675000Y-151556655D01*
X180101511Y-151670729D01*
X179615330Y-151995585D01*
X179600500Y-152017780D01*
X179536927Y-151864302D01*
X179358299Y-151685673D01*
X179124910Y-151589000D01*
X178420750Y-151589000D01*
X178262000Y-151747750D01*
X178262000Y-153113000D01*
X178282000Y-153113000D01*
X178282000Y-153367000D01*
X178262000Y-153367000D01*
X178262000Y-153387000D01*
X178008000Y-153387000D01*
X178008000Y-153367000D01*
X176795150Y-153367000D01*
X176636400Y-153525750D01*
X176636400Y-154382309D01*
X176733073Y-154615698D01*
X176911701Y-154794327D01*
X177142676Y-154890000D01*
X167650000Y-154890000D01*
X167650000Y-152097691D01*
X176636400Y-152097691D01*
X176636400Y-152954250D01*
X176795150Y-153113000D01*
X178008000Y-153113000D01*
X178008000Y-151747750D01*
X177849250Y-151589000D01*
X177145090Y-151589000D01*
X176911701Y-151685673D01*
X176733073Y-151864302D01*
X176636400Y-152097691D01*
X167650000Y-152097691D01*
X167650000Y-148932789D01*
X167879760Y-148932789D01*
X168204090Y-149717727D01*
X168804114Y-150318800D01*
X169588485Y-150644499D01*
X170437789Y-150645240D01*
X171222727Y-150320910D01*
X171823800Y-149720886D01*
X172058086Y-149156661D01*
X179367758Y-149156661D01*
X179579990Y-149670303D01*
X179972630Y-150063629D01*
X180485900Y-150276757D01*
X181041661Y-150277242D01*
X181555303Y-150065010D01*
X181948629Y-149672370D01*
X182161757Y-149159100D01*
X182162242Y-148603339D01*
X181950010Y-148089697D01*
X181557370Y-147696371D01*
X181044100Y-147483243D01*
X180488339Y-147482758D01*
X179974697Y-147694990D01*
X179581371Y-148087630D01*
X179368243Y-148600900D01*
X179367758Y-149156661D01*
X172058086Y-149156661D01*
X172149499Y-148936515D01*
X172150240Y-148087211D01*
X171825910Y-147302273D01*
X171225886Y-146701200D01*
X170582228Y-146433930D01*
X171889675Y-146433930D01*
X171957735Y-146674931D01*
X172477034Y-146859767D01*
X173027538Y-146831805D01*
X173406265Y-146674931D01*
X173474325Y-146433930D01*
X172682000Y-145641605D01*
X171889675Y-146433930D01*
X170582228Y-146433930D01*
X170441515Y-146375501D01*
X169592211Y-146374760D01*
X168807273Y-146699090D01*
X168206200Y-147299114D01*
X167880501Y-148083485D01*
X167879760Y-148932789D01*
X167650000Y-148932789D01*
X167650000Y-145257034D01*
X171284233Y-145257034D01*
X171312195Y-145807538D01*
X171469069Y-146186265D01*
X171710070Y-146254325D01*
X172502395Y-145462000D01*
X172861605Y-145462000D01*
X173653930Y-146254325D01*
X173894931Y-146186265D01*
X174079767Y-145666966D01*
X174051805Y-145116462D01*
X173894931Y-144737735D01*
X173653930Y-144669675D01*
X172861605Y-145462000D01*
X172502395Y-145462000D01*
X171710070Y-144669675D01*
X171469069Y-144737735D01*
X171284233Y-145257034D01*
X167650000Y-145257034D01*
X167650000Y-138624398D01*
X171296190Y-138624398D01*
X171506686Y-139133837D01*
X171896113Y-139523944D01*
X172127381Y-139619975D01*
X171898163Y-139714686D01*
X171508056Y-140104113D01*
X171296671Y-140613184D01*
X171296190Y-141164398D01*
X171506686Y-141673837D01*
X171738507Y-141906063D01*
X171508056Y-142136113D01*
X171296671Y-142645184D01*
X171296190Y-143196398D01*
X171506686Y-143705837D01*
X171896113Y-144095944D01*
X172111496Y-144185379D01*
X171957735Y-144249069D01*
X171889675Y-144490070D01*
X172682000Y-145282395D01*
X173474325Y-144490070D01*
X173406265Y-144249069D01*
X173240960Y-144190231D01*
X173465837Y-144097314D01*
X173855944Y-143707887D01*
X174067329Y-143198816D01*
X174067810Y-142647602D01*
X173857314Y-142138163D01*
X173625493Y-141905937D01*
X173855944Y-141675887D01*
X174067329Y-141166816D01*
X174067810Y-140615602D01*
X173857314Y-140106163D01*
X173467887Y-139716056D01*
X173236619Y-139620025D01*
X173465837Y-139525314D01*
X173855944Y-139135887D01*
X174067329Y-138626816D01*
X174067810Y-138075602D01*
X173857314Y-137566163D01*
X173467887Y-137176056D01*
X172958816Y-136964671D01*
X172407602Y-136964190D01*
X171898163Y-137174686D01*
X171508056Y-137564113D01*
X171296671Y-138073184D01*
X171296190Y-138624398D01*
X167650000Y-138624398D01*
X167650000Y-135216789D01*
X167879760Y-135216789D01*
X168204090Y-136001727D01*
X168804114Y-136602800D01*
X169588485Y-136928499D01*
X170437789Y-136929240D01*
X171222727Y-136604910D01*
X171823800Y-136004886D01*
X172149499Y-135220515D01*
X172150240Y-134371211D01*
X171825910Y-133586273D01*
X171225886Y-132985200D01*
X170441515Y-132659501D01*
X169592211Y-132658760D01*
X168807273Y-132983090D01*
X168206200Y-133583114D01*
X167880501Y-134367485D01*
X167879760Y-135216789D01*
X167650000Y-135216789D01*
X167650000Y-125062789D01*
X167989760Y-125062789D01*
X168314090Y-125847727D01*
X168914114Y-126448800D01*
X169698485Y-126774499D01*
X170547789Y-126775240D01*
X171332727Y-126450910D01*
X171933800Y-125850886D01*
X172259499Y-125066515D01*
X172260240Y-124217211D01*
X171935910Y-123432273D01*
X171335886Y-122831200D01*
X170692228Y-122563930D01*
X171999675Y-122563930D01*
X172067735Y-122804931D01*
X172587034Y-122989767D01*
X173137538Y-122961805D01*
X173516265Y-122804931D01*
X173584325Y-122563930D01*
X172792000Y-121771605D01*
X171999675Y-122563930D01*
X170692228Y-122563930D01*
X170551515Y-122505501D01*
X169702211Y-122504760D01*
X168917273Y-122829090D01*
X168316200Y-123429114D01*
X167990501Y-124213485D01*
X167989760Y-125062789D01*
X167650000Y-125062789D01*
X167650000Y-121387034D01*
X171394233Y-121387034D01*
X171422195Y-121937538D01*
X171579069Y-122316265D01*
X171820070Y-122384325D01*
X172612395Y-121592000D01*
X172971605Y-121592000D01*
X173763930Y-122384325D01*
X174004931Y-122316265D01*
X174189767Y-121796966D01*
X174161805Y-121246462D01*
X174004931Y-120867735D01*
X173763930Y-120799675D01*
X172971605Y-121592000D01*
X172612395Y-121592000D01*
X171820070Y-120799675D01*
X171579069Y-120867735D01*
X171394233Y-121387034D01*
X167650000Y-121387034D01*
X167650000Y-114754398D01*
X171406190Y-114754398D01*
X171616686Y-115263837D01*
X172006113Y-115653944D01*
X172237381Y-115749975D01*
X172008163Y-115844686D01*
X171618056Y-116234113D01*
X171406671Y-116743184D01*
X171406190Y-117294398D01*
X171616686Y-117803837D01*
X171848507Y-118036063D01*
X171618056Y-118266113D01*
X171406671Y-118775184D01*
X171406190Y-119326398D01*
X171616686Y-119835837D01*
X172006113Y-120225944D01*
X172221496Y-120315379D01*
X172067735Y-120379069D01*
X171999675Y-120620070D01*
X172792000Y-121412395D01*
X173584325Y-120620070D01*
X173516265Y-120379069D01*
X173350960Y-120320231D01*
X173575837Y-120227314D01*
X173965944Y-119837887D01*
X174177329Y-119328816D01*
X174177810Y-118777602D01*
X173967314Y-118268163D01*
X173735493Y-118035937D01*
X173965944Y-117805887D01*
X174177329Y-117296816D01*
X174177810Y-116745602D01*
X173967314Y-116236163D01*
X173577887Y-115846056D01*
X173346619Y-115750025D01*
X173575837Y-115655314D01*
X173965944Y-115265887D01*
X174177329Y-114756816D01*
X174177810Y-114205602D01*
X173967314Y-113696163D01*
X173577887Y-113306056D01*
X173068816Y-113094671D01*
X172517602Y-113094190D01*
X172008163Y-113304686D01*
X171618056Y-113694113D01*
X171406671Y-114203184D01*
X171406190Y-114754398D01*
X167650000Y-114754398D01*
X167650000Y-111346789D01*
X167989760Y-111346789D01*
X168314090Y-112131727D01*
X168914114Y-112732800D01*
X169698485Y-113058499D01*
X170547789Y-113059240D01*
X171332727Y-112734910D01*
X171933800Y-112134886D01*
X172259499Y-111350515D01*
X172260240Y-110501211D01*
X171935910Y-109716273D01*
X171335886Y-109115200D01*
X170551515Y-108789501D01*
X169702211Y-108788760D01*
X168917273Y-109113090D01*
X168316200Y-109713114D01*
X167990501Y-110497485D01*
X167989760Y-111346789D01*
X167650000Y-111346789D01*
X167650000Y-92456661D01*
X179367758Y-92456661D01*
X179579990Y-92970303D01*
X179972630Y-93363629D01*
X180485900Y-93576757D01*
X181041661Y-93577242D01*
X181555303Y-93365010D01*
X181948629Y-92972370D01*
X182161757Y-92459100D01*
X182162242Y-91903339D01*
X181950010Y-91389697D01*
X181557370Y-90996371D01*
X181044100Y-90783243D01*
X180488339Y-90782758D01*
X179974697Y-90994990D01*
X179581371Y-91387630D01*
X179368243Y-91900900D01*
X179367758Y-92456661D01*
X167650000Y-92456661D01*
X167650000Y-88698967D01*
X167689430Y-88698967D01*
X167689430Y-89771033D01*
X167794900Y-90301268D01*
X168095254Y-90750779D01*
X168544765Y-91051133D01*
X169075000Y-91156603D01*
X169605235Y-91051133D01*
X170054746Y-90750779D01*
X170325000Y-90346316D01*
X170595254Y-90750779D01*
X171044765Y-91051133D01*
X171575000Y-91156603D01*
X172105235Y-91051133D01*
X172554746Y-90750779D01*
X172830569Y-90337982D01*
X172843501Y-90381677D01*
X173185056Y-90803658D01*
X173662097Y-91062810D01*
X173733725Y-91076993D01*
X173948000Y-90954339D01*
X173948000Y-89362000D01*
X173928000Y-89362000D01*
X173928000Y-89108000D01*
X173948000Y-89108000D01*
X173948000Y-87515661D01*
X174202000Y-87515661D01*
X174202000Y-89108000D01*
X174222000Y-89108000D01*
X174222000Y-89362000D01*
X174202000Y-89362000D01*
X174202000Y-90954339D01*
X174416275Y-91076993D01*
X174487903Y-91062810D01*
X174964944Y-90803658D01*
X175306499Y-90381677D01*
X175319431Y-90337982D01*
X175595254Y-90750779D01*
X176044765Y-91051133D01*
X176575000Y-91156603D01*
X177105235Y-91051133D01*
X177554746Y-90750779D01*
X177855100Y-90301268D01*
X177960570Y-89771033D01*
X177960570Y-88698967D01*
X177855100Y-88168732D01*
X177554746Y-87719221D01*
X177105235Y-87418867D01*
X176575000Y-87313397D01*
X176044765Y-87418867D01*
X175595254Y-87719221D01*
X175319431Y-88132018D01*
X175306499Y-88088323D01*
X174964944Y-87666342D01*
X174487903Y-87407190D01*
X174416275Y-87393007D01*
X174202000Y-87515661D01*
X173948000Y-87515661D01*
X173733725Y-87393007D01*
X173662097Y-87407190D01*
X173185056Y-87666342D01*
X172843501Y-88088323D01*
X172830569Y-88132018D01*
X172554746Y-87719221D01*
X172105235Y-87418867D01*
X171575000Y-87313397D01*
X171044765Y-87418867D01*
X170595254Y-87719221D01*
X170325000Y-88123684D01*
X170054746Y-87719221D01*
X169605235Y-87418867D01*
X169075000Y-87313397D01*
X168544765Y-87418867D01*
X168095254Y-87719221D01*
X167794900Y-88168732D01*
X167689430Y-88698967D01*
X167650000Y-88698967D01*
X167650000Y-85810000D01*
X191640000Y-85810000D01*
X191640000Y-90005236D01*
X191640000Y-90005236D01*
G37*
X191640000Y-90005236D02*
X191417291Y-89466239D01*
X190667707Y-88715345D01*
X189687827Y-88308464D01*
X188626828Y-88307538D01*
X187646239Y-88712709D01*
X186895345Y-89462293D01*
X186488464Y-90442173D01*
X186487538Y-91503172D01*
X186892709Y-92483761D01*
X187642293Y-93234655D01*
X188622173Y-93641536D01*
X189683172Y-93642462D01*
X190663761Y-93237291D01*
X191414655Y-92487707D01*
X191640000Y-91945015D01*
X191640000Y-115432795D01*
X191637291Y-115426239D01*
X190887707Y-114675345D01*
X189907827Y-114268464D01*
X188846828Y-114267538D01*
X187866239Y-114672709D01*
X187115345Y-115422293D01*
X186708464Y-116402173D01*
X186707538Y-117463172D01*
X187112709Y-118443761D01*
X187862293Y-119194655D01*
X188842173Y-119601536D01*
X189903172Y-119602462D01*
X190883761Y-119197291D01*
X191634655Y-118447707D01*
X191640000Y-118434835D01*
X191640000Y-147850000D01*
X191694046Y-148121705D01*
X191847954Y-148352046D01*
X192078295Y-148505954D01*
X192350000Y-148560000D01*
X203740000Y-148560000D01*
X203740000Y-151638862D01*
X203379805Y-151044799D01*
X202471374Y-150378208D01*
X201377000Y-150110000D01*
X200127000Y-150110000D01*
X200127000Y-152868000D01*
X200147000Y-152868000D01*
X200147000Y-153122000D01*
X200127000Y-153122000D01*
X200127000Y-153142000D01*
X199873000Y-153142000D01*
X199873000Y-153122000D01*
X199853000Y-153122000D01*
X199853000Y-152868000D01*
X199873000Y-152868000D01*
X199873000Y-150110000D01*
X198623000Y-150110000D01*
X197528626Y-150378208D01*
X196620195Y-151044799D01*
X196099056Y-151904305D01*
X196096401Y-151890958D01*
X195471012Y-150954997D01*
X194535051Y-150329608D01*
X193431009Y-150110000D01*
X190768991Y-150110000D01*
X189664949Y-150329608D01*
X188728988Y-150954997D01*
X188103599Y-151890958D01*
X187883991Y-152995000D01*
X188103599Y-154099042D01*
X188632100Y-154890000D01*
X183382637Y-154890000D01*
X183788489Y-154809271D01*
X184274670Y-154484415D01*
X184599526Y-153998234D01*
X184713600Y-153424745D01*
X184713600Y-153055255D01*
X184599526Y-152481766D01*
X184274670Y-151995585D01*
X183788489Y-151670729D01*
X183215000Y-151556655D01*
X182641511Y-151670729D01*
X182155330Y-151995585D01*
X181945000Y-152310366D01*
X181734670Y-151995585D01*
X181248489Y-151670729D01*
X180675000Y-151556655D01*
X180101511Y-151670729D01*
X179615330Y-151995585D01*
X179600500Y-152017780D01*
X179536927Y-151864302D01*
X179358299Y-151685673D01*
X179124910Y-151589000D01*
X178420750Y-151589000D01*
X178262000Y-151747750D01*
X178262000Y-153113000D01*
X178282000Y-153113000D01*
X178282000Y-153367000D01*
X178262000Y-153367000D01*
X178262000Y-153387000D01*
X178008000Y-153387000D01*
X178008000Y-153367000D01*
X176795150Y-153367000D01*
X176636400Y-153525750D01*
X176636400Y-154382309D01*
X176733073Y-154615698D01*
X176911701Y-154794327D01*
X177142676Y-154890000D01*
X167650000Y-154890000D01*
X167650000Y-152097691D01*
X176636400Y-152097691D01*
X176636400Y-152954250D01*
X176795150Y-153113000D01*
X178008000Y-153113000D01*
X178008000Y-151747750D01*
X177849250Y-151589000D01*
X177145090Y-151589000D01*
X176911701Y-151685673D01*
X176733073Y-151864302D01*
X176636400Y-152097691D01*
X167650000Y-152097691D01*
X167650000Y-148932789D01*
X167879760Y-148932789D01*
X168204090Y-149717727D01*
X168804114Y-150318800D01*
X169588485Y-150644499D01*
X170437789Y-150645240D01*
X171222727Y-150320910D01*
X171823800Y-149720886D01*
X172058086Y-149156661D01*
X179367758Y-149156661D01*
X179579990Y-149670303D01*
X179972630Y-150063629D01*
X180485900Y-150276757D01*
X181041661Y-150277242D01*
X181555303Y-150065010D01*
X181948629Y-149672370D01*
X182161757Y-149159100D01*
X182162242Y-148603339D01*
X181950010Y-148089697D01*
X181557370Y-147696371D01*
X181044100Y-147483243D01*
X180488339Y-147482758D01*
X179974697Y-147694990D01*
X179581371Y-148087630D01*
X179368243Y-148600900D01*
X179367758Y-149156661D01*
X172058086Y-149156661D01*
X172149499Y-148936515D01*
X172150240Y-148087211D01*
X171825910Y-147302273D01*
X171225886Y-146701200D01*
X170582228Y-146433930D01*
X171889675Y-146433930D01*
X171957735Y-146674931D01*
X172477034Y-146859767D01*
X173027538Y-146831805D01*
X173406265Y-146674931D01*
X173474325Y-146433930D01*
X172682000Y-145641605D01*
X171889675Y-146433930D01*
X170582228Y-146433930D01*
X170441515Y-146375501D01*
X169592211Y-146374760D01*
X168807273Y-146699090D01*
X168206200Y-147299114D01*
X167880501Y-148083485D01*
X167879760Y-148932789D01*
X167650000Y-148932789D01*
X167650000Y-145257034D01*
X171284233Y-145257034D01*
X171312195Y-145807538D01*
X171469069Y-146186265D01*
X171710070Y-146254325D01*
X172502395Y-145462000D01*
X172861605Y-145462000D01*
X173653930Y-146254325D01*
X173894931Y-146186265D01*
X174079767Y-145666966D01*
X174051805Y-145116462D01*
X173894931Y-144737735D01*
X173653930Y-144669675D01*
X172861605Y-145462000D01*
X172502395Y-145462000D01*
X171710070Y-144669675D01*
X171469069Y-144737735D01*
X171284233Y-145257034D01*
X167650000Y-145257034D01*
X167650000Y-138624398D01*
X171296190Y-138624398D01*
X171506686Y-139133837D01*
X171896113Y-139523944D01*
X172127381Y-139619975D01*
X171898163Y-139714686D01*
X171508056Y-140104113D01*
X171296671Y-140613184D01*
X171296190Y-141164398D01*
X171506686Y-141673837D01*
X171738507Y-141906063D01*
X171508056Y-142136113D01*
X171296671Y-142645184D01*
X171296190Y-143196398D01*
X171506686Y-143705837D01*
X171896113Y-144095944D01*
X172111496Y-144185379D01*
X171957735Y-144249069D01*
X171889675Y-144490070D01*
X172682000Y-145282395D01*
X173474325Y-144490070D01*
X173406265Y-144249069D01*
X173240960Y-144190231D01*
X173465837Y-144097314D01*
X173855944Y-143707887D01*
X174067329Y-143198816D01*
X174067810Y-142647602D01*
X173857314Y-142138163D01*
X173625493Y-141905937D01*
X173855944Y-141675887D01*
X174067329Y-141166816D01*
X174067810Y-140615602D01*
X173857314Y-140106163D01*
X173467887Y-139716056D01*
X173236619Y-139620025D01*
X173465837Y-139525314D01*
X173855944Y-139135887D01*
X174067329Y-138626816D01*
X174067810Y-138075602D01*
X173857314Y-137566163D01*
X173467887Y-137176056D01*
X172958816Y-136964671D01*
X172407602Y-136964190D01*
X171898163Y-137174686D01*
X171508056Y-137564113D01*
X171296671Y-138073184D01*
X171296190Y-138624398D01*
X167650000Y-138624398D01*
X167650000Y-135216789D01*
X167879760Y-135216789D01*
X168204090Y-136001727D01*
X168804114Y-136602800D01*
X169588485Y-136928499D01*
X170437789Y-136929240D01*
X171222727Y-136604910D01*
X171823800Y-136004886D01*
X172149499Y-135220515D01*
X172150240Y-134371211D01*
X171825910Y-133586273D01*
X171225886Y-132985200D01*
X170441515Y-132659501D01*
X169592211Y-132658760D01*
X168807273Y-132983090D01*
X168206200Y-133583114D01*
X167880501Y-134367485D01*
X167879760Y-135216789D01*
X167650000Y-135216789D01*
X167650000Y-125062789D01*
X167989760Y-125062789D01*
X168314090Y-125847727D01*
X168914114Y-126448800D01*
X169698485Y-126774499D01*
X170547789Y-126775240D01*
X171332727Y-126450910D01*
X171933800Y-125850886D01*
X172259499Y-125066515D01*
X172260240Y-124217211D01*
X171935910Y-123432273D01*
X171335886Y-122831200D01*
X170692228Y-122563930D01*
X171999675Y-122563930D01*
X172067735Y-122804931D01*
X172587034Y-122989767D01*
X173137538Y-122961805D01*
X173516265Y-122804931D01*
X173584325Y-122563930D01*
X172792000Y-121771605D01*
X171999675Y-122563930D01*
X170692228Y-122563930D01*
X170551515Y-122505501D01*
X169702211Y-122504760D01*
X168917273Y-122829090D01*
X168316200Y-123429114D01*
X167990501Y-124213485D01*
X167989760Y-125062789D01*
X167650000Y-125062789D01*
X167650000Y-121387034D01*
X171394233Y-121387034D01*
X171422195Y-121937538D01*
X171579069Y-122316265D01*
X171820070Y-122384325D01*
X172612395Y-121592000D01*
X172971605Y-121592000D01*
X173763930Y-122384325D01*
X174004931Y-122316265D01*
X174189767Y-121796966D01*
X174161805Y-121246462D01*
X174004931Y-120867735D01*
X173763930Y-120799675D01*
X172971605Y-121592000D01*
X172612395Y-121592000D01*
X171820070Y-120799675D01*
X171579069Y-120867735D01*
X171394233Y-121387034D01*
X167650000Y-121387034D01*
X167650000Y-114754398D01*
X171406190Y-114754398D01*
X171616686Y-115263837D01*
X172006113Y-115653944D01*
X172237381Y-115749975D01*
X172008163Y-115844686D01*
X171618056Y-116234113D01*
X171406671Y-116743184D01*
X171406190Y-117294398D01*
X171616686Y-117803837D01*
X171848507Y-118036063D01*
X171618056Y-118266113D01*
X171406671Y-118775184D01*
X171406190Y-119326398D01*
X171616686Y-119835837D01*
X172006113Y-120225944D01*
X172221496Y-120315379D01*
X172067735Y-120379069D01*
X171999675Y-120620070D01*
X172792000Y-121412395D01*
X173584325Y-120620070D01*
X173516265Y-120379069D01*
X173350960Y-120320231D01*
X173575837Y-120227314D01*
X173965944Y-119837887D01*
X174177329Y-119328816D01*
X174177810Y-118777602D01*
X173967314Y-118268163D01*
X173735493Y-118035937D01*
X173965944Y-117805887D01*
X174177329Y-117296816D01*
X174177810Y-116745602D01*
X173967314Y-116236163D01*
X173577887Y-115846056D01*
X173346619Y-115750025D01*
X173575837Y-115655314D01*
X173965944Y-115265887D01*
X174177329Y-114756816D01*
X174177810Y-114205602D01*
X173967314Y-113696163D01*
X173577887Y-113306056D01*
X173068816Y-113094671D01*
X172517602Y-113094190D01*
X172008163Y-113304686D01*
X171618056Y-113694113D01*
X171406671Y-114203184D01*
X171406190Y-114754398D01*
X167650000Y-114754398D01*
X167650000Y-111346789D01*
X167989760Y-111346789D01*
X168314090Y-112131727D01*
X168914114Y-112732800D01*
X169698485Y-113058499D01*
X170547789Y-113059240D01*
X171332727Y-112734910D01*
X171933800Y-112134886D01*
X172259499Y-111350515D01*
X172260240Y-110501211D01*
X171935910Y-109716273D01*
X171335886Y-109115200D01*
X170551515Y-108789501D01*
X169702211Y-108788760D01*
X168917273Y-109113090D01*
X168316200Y-109713114D01*
X167990501Y-110497485D01*
X167989760Y-111346789D01*
X167650000Y-111346789D01*
X167650000Y-92456661D01*
X179367758Y-92456661D01*
X179579990Y-92970303D01*
X179972630Y-93363629D01*
X180485900Y-93576757D01*
X181041661Y-93577242D01*
X181555303Y-93365010D01*
X181948629Y-92972370D01*
X182161757Y-92459100D01*
X182162242Y-91903339D01*
X181950010Y-91389697D01*
X181557370Y-90996371D01*
X181044100Y-90783243D01*
X180488339Y-90782758D01*
X179974697Y-90994990D01*
X179581371Y-91387630D01*
X179368243Y-91900900D01*
X179367758Y-92456661D01*
X167650000Y-92456661D01*
X167650000Y-88698967D01*
X167689430Y-88698967D01*
X167689430Y-89771033D01*
X167794900Y-90301268D01*
X168095254Y-90750779D01*
X168544765Y-91051133D01*
X169075000Y-91156603D01*
X169605235Y-91051133D01*
X170054746Y-90750779D01*
X170325000Y-90346316D01*
X170595254Y-90750779D01*
X171044765Y-91051133D01*
X171575000Y-91156603D01*
X172105235Y-91051133D01*
X172554746Y-90750779D01*
X172830569Y-90337982D01*
X172843501Y-90381677D01*
X173185056Y-90803658D01*
X173662097Y-91062810D01*
X173733725Y-91076993D01*
X173948000Y-90954339D01*
X173948000Y-89362000D01*
X173928000Y-89362000D01*
X173928000Y-89108000D01*
X173948000Y-89108000D01*
X173948000Y-87515661D01*
X174202000Y-87515661D01*
X174202000Y-89108000D01*
X174222000Y-89108000D01*
X174222000Y-89362000D01*
X174202000Y-89362000D01*
X174202000Y-90954339D01*
X174416275Y-91076993D01*
X174487903Y-91062810D01*
X174964944Y-90803658D01*
X175306499Y-90381677D01*
X175319431Y-90337982D01*
X175595254Y-90750779D01*
X176044765Y-91051133D01*
X176575000Y-91156603D01*
X177105235Y-91051133D01*
X177554746Y-90750779D01*
X177855100Y-90301268D01*
X177960570Y-89771033D01*
X177960570Y-88698967D01*
X177855100Y-88168732D01*
X177554746Y-87719221D01*
X177105235Y-87418867D01*
X176575000Y-87313397D01*
X176044765Y-87418867D01*
X175595254Y-87719221D01*
X175319431Y-88132018D01*
X175306499Y-88088323D01*
X174964944Y-87666342D01*
X174487903Y-87407190D01*
X174416275Y-87393007D01*
X174202000Y-87515661D01*
X173948000Y-87515661D01*
X173733725Y-87393007D01*
X173662097Y-87407190D01*
X173185056Y-87666342D01*
X172843501Y-88088323D01*
X172830569Y-88132018D01*
X172554746Y-87719221D01*
X172105235Y-87418867D01*
X171575000Y-87313397D01*
X171044765Y-87418867D01*
X170595254Y-87719221D01*
X170325000Y-88123684D01*
X170054746Y-87719221D01*
X169605235Y-87418867D01*
X169075000Y-87313397D01*
X168544765Y-87418867D01*
X168095254Y-87719221D01*
X167794900Y-88168732D01*
X167689430Y-88698967D01*
X167650000Y-88698967D01*
X167650000Y-85810000D01*
X191640000Y-85810000D01*
X191640000Y-90005236D01*
M02*
